<?xml version="1.0" standalone="no"?>
<!DOCTYPE svg PUBLIC "-//W3C//DTD SVG 20010904//EN"
 "http://www.w3.org/TR/2001/REC-SVG-20010904/DTD/svg10.dtd">
<svg version="1.0" xmlns="http://www.w3.org/2000/svg"
 width="1024.000000pt" height="1024.000000pt" viewBox="0 0 1024.000000 1024.000000"
 preserveAspectRatio="xMidYMid meet">
<metadata>
Created by potrace 1.14, written by Peter Selinger 2001-2017
</metadata>
<g transform="translate(0.000000,1024.000000) scale(0.100000,-0.100000)"
fill="#000000" stroke="none">
<path d="M7887 9884 c-1 -1 -27 -5 -57 -9 -75 -10 -95 -13 -97 -15 -2 -2 -7
-4 -13 -5 -5 -1 -12 -4 -15 -5 -3 -1 -9 -4 -15 -5 -5 -1 -12 -4 -15 -5 -3 -1
-8 -3 -12 -4 -55 -12 -188 -79 -219 -111 -9 -8 -19 -15 -24 -15 -18 0 -269
-260 -252 -260 4 0 2 -4 -3 -8 -6 -4 -30 -34 -55 -67 -24 -33 -50 -66 -57 -73
-7 -7 -20 -26 -30 -42 -9 -17 -21 -30 -25 -30 -4 0 -8 -8 -8 -17 -1 -10 -14
-34 -31 -53 l-29 -35 -153 53 c-83 29 -161 54 -172 57 -11 2 -78 19 -150 38
-127 33 -212 52 -287 62 -21 3 -55 7 -75 10 -134 20 -300 22 -378 5 -56 -12
-142 -60 -184 -105 -16 -16 -47 -63 -69 -103 -21 -39 -42 -69 -47 -65 -4 5 -6
4 -3 -2 7 -12 -36 -97 -46 -90 -3 3 -4 2 -1 -1 2 -4 -6 -28 -20 -53 -29 -56
-65 -142 -70 -167 -2 -11 -4 -19 -5 -19 -1 0 -4 -13 -6 -30 -8 -62 -4 -126 11
-161 26 -64 18 -89 -32 -100 -6 -1 -22 -11 -34 -23 -13 -12 -27 -21 -31 -21
-5 0 -15 -6 -23 -12 -50 -43 -72 -67 -67 -72 3 -3 0 -6 -6 -6 -7 0 -12 -7 -12
-15 0 -9 -7 -18 -15 -21 -8 -4 -12 -10 -9 -15 3 -6 0 -16 -6 -24 -7 -8 -10
-15 -6 -15 3 0 -1 -17 -10 -37 -9 -21 -17 -47 -19 -58 -5 -29 -29 -89 -38 -96
-5 -3 -8 -10 -8 -15 2 -23 -12 -74 -21 -74 -5 0 -7 -3 -5 -7 3 -5 0 -19 -6
-33 -5 -14 -11 -29 -13 -35 -6 -19 -32 -90 -45 -120 -7 -16 -13 -34 -14 -40
-1 -5 -8 -24 -17 -40 -9 -17 -16 -40 -15 -50 2 -24 0 -24 -238 6 -92 12 -385
15 -495 5 -82 -8 -108 -11 -185 -22 -27 -5 -59 -9 -70 -10 -11 0 -27 -4 -35
-7 -8 -4 -31 -9 -50 -11 -19 -3 -35 -5 -35 -6 0 -1 -11 -3 -25 -6 -14 -2 -59
-13 -100 -24 -41 -10 -86 -21 -100 -24 -14 -3 -43 -10 -65 -16 -22 -7 -49 -12
-60 -13 -11 -1 -23 -6 -26 -10 -3 -4 -17 -10 -30 -12 -13 -3 -49 -14 -79 -26
-30 -11 -62 -21 -70 -22 -8 -1 -18 -6 -21 -10 -3 -5 -12 -9 -20 -11 -8 -1 -31
-10 -53 -19 -21 -9 -40 -17 -41 -17 -1 0 -20 -8 -41 -17 -22 -9 -42 -16 -46
-15 -5 1 -8 -3 -8 -9 0 -5 -4 -7 -10 -4 -5 3 -10 1 -10 -4 0 -6 -3 -10 -7 -9
-5 1 -31 -10 -60 -24 -28 -14 -54 -24 -57 -21 -3 4 -6 1 -6 -6 0 -7 -5 -9 -10
-6 -6 3 -10 2 -10 -2 0 -9 -59 -37 -72 -34 -5 0 -8 -4 -8 -9 0 -6 -7 -10 -15
-10 -8 0 -15 -4 -15 -10 0 -5 -5 -10 -12 -10 -6 0 -20 -8 -31 -17 -15 -13 -18
-14 -12 -3 4 8 -2 5 -14 -7 -12 -13 -28 -23 -36 -23 -8 0 -15 -4 -15 -10 0 -5
-7 -10 -15 -10 -8 0 -15 -3 -15 -8 0 -4 -9 -13 -21 -20 -13 -9 -18 -9 -14 -2
6 10 -61 -36 -102 -71 -7 -5 -13 -6 -13 -2 0 4 -4 4 -8 -2 -4 -5 -45 -39 -92
-75 -47 -35 -86 -68 -88 -72 -2 -4 -10 -8 -18 -8 -9 0 -12 -4 -9 -10 6 -9 -8
-14 -27 -11 -5 0 -8 -6 -8 -14 0 -8 -5 -15 -10 -15 -6 0 -21 -10 -34 -22 -13
-13 -50 -45 -81 -73 -98 -86 -217 -208 -261 -267 -11 -15 -24 -25 -27 -21 -4
3 -7 1 -7 -5 0 -6 -10 -22 -23 -36 -12 -13 -31 -37 -42 -52 -11 -15 -26 -33
-32 -40 -7 -7 -13 -15 -13 -19 0 -3 -11 -16 -25 -29 -13 -13 -22 -26 -18 -29
3 -4 1 -7 -5 -7 -6 0 -14 -9 -17 -20 -4 -11 -11 -17 -17 -14 -6 4 -8 3 -5 -3
4 -5 -3 -20 -14 -31 -11 -12 -17 -22 -14 -22 4 0 0 -7 -7 -15 -30 -34 -36 -43
-31 -49 3 -3 -2 -8 -11 -12 -9 -3 -14 -10 -11 -14 3 -4 -2 -13 -10 -20 -8 -7
-15 -19 -15 -26 0 -8 -4 -14 -10 -14 -5 0 -10 -6 -10 -13 0 -7 -8 -22 -19 -33
-10 -11 -21 -30 -25 -41 -4 -11 -18 -33 -31 -47 -13 -14 -22 -26 -19 -26 5 0
-56 -122 -65 -130 -4 -3 -7 -12 -9 -20 -2 -8 -10 -22 -18 -31 -8 -9 -11 -19
-7 -22 3 -4 1 -7 -5 -7 -7 0 -11 -3 -10 -7 1 -5 -7 -26 -17 -48 -10 -22 -19
-42 -20 -45 -2 -3 -6 -15 -10 -27 -4 -13 -12 -23 -17 -23 -5 0 -7 -4 -4 -8 3
-5 -1 -20 -9 -35 -7 -14 -11 -28 -7 -31 3 -3 -1 -6 -8 -6 -7 0 -11 -3 -7 -6 3
-3 -3 -25 -13 -49 -10 -24 -16 -46 -13 -49 4 -3 1 -6 -5 -6 -7 0 -11 -3 -10
-7 3 -15 -14 -83 -21 -83 -4 0 -7 -8 -8 -17 -1 -10 -8 -43 -17 -73 -9 -30 -19
-66 -22 -79 -3 -14 -7 -28 -9 -32 -3 -4 -7 -24 -10 -45 -3 -22 -9 -46 -12 -54
-3 -8 -8 -31 -10 -50 -2 -19 -8 -39 -13 -45 -6 -7 -8 -14 -5 -16 2 -3 0 -23
-6 -47 -59 -264 -72 -731 -28 -1042 13 -92 16 -111 29 -179 5 -30 8 -56 5 -59
-3 -3 -1 -10 4 -16 5 -6 12 -27 15 -46 3 -19 8 -47 11 -62 7 -34 71 -256 85
-293 6 -15 8 -31 4 -36 -3 -5 -1 -9 4 -9 5 0 15 -21 23 -48 7 -26 11 -47 10
-47 -2 0 6 -19 18 -43 12 -23 19 -42 16 -42 -2 0 4 -17 14 -38 11 -20 27 -55
36 -77 9 -22 40 -87 68 -145 28 -58 52 -107 52 -110 0 -3 13 -24 28 -47 15
-24 27 -47 27 -53 0 -5 5 -10 11 -10 5 0 7 -5 4 -10 -3 -5 -1 -10 5 -10 6 0 9
-4 6 -9 -3 -5 1 -11 9 -15 8 -3 15 -12 15 -20 0 -8 12 -28 26 -45 14 -17 22
-31 18 -31 -4 0 1 -7 12 -16 10 -8 12 -13 4 -9 -8 4 -5 -2 7 -13 13 -11 23
-23 23 -27 0 -4 8 -17 18 -30 9 -12 24 -33 32 -45 8 -12 33 -45 55 -74 22 -29
51 -68 65 -86 120 -162 339 -394 520 -550 41 -36 77 -67 80 -70 3 -3 21 -17
42 -32 20 -15 42 -33 50 -40 7 -7 36 -29 63 -47 28 -19 52 -38 55 -41 13 -14
190 -130 199 -130 6 0 11 -4 11 -10 0 -5 7 -10 15 -10 8 0 15 -4 15 -10 0 -5
4 -10 9 -10 6 0 36 -15 68 -34 32 -19 62 -34 67 -34 5 0 12 -5 15 -10 7 -10
216 -112 230 -112 5 0 11 -3 13 -7 1 -5 23 -16 48 -25 25 -9 81 -31 125 -48
44 -17 85 -33 90 -34 6 -2 17 -6 25 -9 50 -20 223 -73 270 -82 8 -2 53 -12
100 -23 93 -22 166 -38 220 -46 19 -4 44 -8 55 -10 48 -9 230 -28 340 -35 120
-8 494 -6 550 3 17 2 62 7 100 11 330 30 754 140 1060 275 453 199 827 454
1174 801 62 63 134 139 160 169 25 30 52 61 59 69 64 68 268 361 352 506 120
207 282 578 332 760 20 70 56 207 62 235 24 99 57 253 61 285 4 22 8 52 11 66
2 14 6 52 9 84 4 33 8 61 10 65 7 12 18 212 18 335 0 118 -10 303 -18 347 -2
9 -7 48 -11 85 -6 67 -11 98 -14 98 -2 0 -9 35 -14 75 -5 42 -63 278 -81 335
-7 22 -23 74 -35 115 -12 41 -26 84 -30 95 -5 11 -20 52 -33 90 -49 137 -89
232 -159 373 -39 79 -68 145 -65 148 3 3 29 1 59 -5 29 -6 71 -13 93 -16 23
-3 51 -7 63 -10 119 -23 421 -24 542 -1 136 25 141 26 219 47 319 89 644 354
776 634 64 135 109 263 120 337 3 24 10 57 14 73 9 34 7 375 -3 416 -3 14 -8
41 -10 60 -3 19 -5 34 -6 34 -1 0 -3 9 -5 20 -2 11 -6 30 -9 43 -3 12 -8 30
-10 40 -2 9 -9 31 -16 47 -6 17 -12 32 -12 35 -1 6 -2 11 -19 65 -7 22 -12 41
-11 42 1 2 -5 18 -13 37 -8 18 -11 36 -8 40 4 3 0 6 -7 6 -7 0 -11 3 -7 6 3 3
-3 22 -13 42 -11 19 -17 39 -14 44 3 4 0 8 -7 8 -7 0 -10 3 -7 6 4 3 0 17 -7
31 -8 15 -12 30 -9 35 3 4 0 8 -6 8 -7 0 -10 6 -7 14 3 8 1 16 -4 18 -6 2 -11
10 -12 18 -2 8 -6 21 -10 28 -5 6 -6 16 -3 21 4 5 3 11 -1 13 -10 4 -63 113
-63 128 0 6 -7 18 -15 27 -8 8 -13 19 -10 24 4 5 2 9 -3 9 -4 0 -19 24 -31 53
-43 97 -174 357 -183 363 -4 3 -6 10 -3 15 4 5 3 9 -2 9 -4 0 -14 14 -22 30
-7 17 -38 77 -69 133 -30 56 -55 108 -55 115 0 6 -4 12 -9 12 -5 0 -6 5 -3 10
3 6 2 10 -4 10 -5 0 -13 10 -17 23 -3 12 -15 34 -26 50 -11 15 -16 27 -12 27
4 0 -1 7 -12 15 -10 8 -15 15 -11 15 4 0 -7 21 -25 48 -18 26 -32 50 -31 53 1
3 -11 20 -26 37 -16 17 -27 32 -26 34 2 2 -12 21 -31 43 -19 22 -34 45 -34 52
0 6 -5 15 -12 19 -7 5 -9 2 -4 -7 4 -8 1 -5 -6 5 -7 11 -29 36 -48 56 -19 21
-36 40 -37 44 -2 3 -4 5 -5 4 -6 -5 -65 58 -61 65 2 4 -1 7 -7 7 -6 0 -21 10
-34 23 -12 12 -37 33 -55 47 -17 14 -44 35 -59 47 -15 13 -33 23 -39 23 -7 0
-13 3 -13 8 0 7 -54 34 -65 33 -3 -1 -27 10 -53 23 -45 23 -158 64 -192 71
-80 15 -166 24 -173 19z m165 -405 c99 -26 214 -101 318 -208 104 -107 266
-347 395 -586 26 -49 60 -112 75 -140 72 -133 263 -521 300 -610 23 -55 48
-113 55 -130 18 -40 44 -104 46 -113 1 -4 10 -28 20 -54 10 -27 17 -48 14 -48
-2 0 3 -16 11 -35 8 -19 11 -35 8 -35 -4 0 -2 -6 3 -12 9 -11 21 -60 25 -95 0
-5 4 -18 9 -31 5 -13 11 -35 14 -50 3 -15 7 -38 10 -52 27 -130 26 -324 -4
-445 -29 -120 -80 -251 -111 -283 -14 -14 -18 -22 -11 -17 42 25 -112 -144
-173 -190 -14 -11 -32 -25 -39 -30 -44 -38 -167 -111 -167 -100 0 4 -7 -1 -16
-9 -8 -9 -22 -17 -30 -17 -23 -2 -28 -4 -41 -12 -7 -5 -17 -6 -22 -3 -5 4 -11
2 -13 -3 -1 -6 -14 -12 -28 -15 -14 -3 -35 -7 -47 -10 -99 -25 -157 -30 -303
-31 -130 0 -228 6 -300 19 -14 3 -92 17 -175 31 -135 23 -304 58 -346 71 -22
6 -79 59 -79 72 0 7 6 12 13 12 7 0 26 24 43 53 30 53 254 503 254 511 0 3 13
33 29 68 29 63 68 166 77 203 29 124 22 167 -54 318 -2 4 14 5 37 1 56 -9 83
0 126 43 55 55 107 138 145 233 18 47 50 122 71 166 42 90 65 193 55 245 -23
124 -176 328 -341 455 -62 47 -184 127 -250 164 -33 18 -87 48 -120 67 -33 18
-77 41 -97 49 -21 9 -38 20 -38 25 0 5 -7 9 -16 9 -13 0 -15 7 -9 38 4 20 11
39 16 40 5 2 9 10 9 18 0 9 5 25 12 37 7 12 13 27 14 34 1 7 11 25 21 40 10
15 25 41 33 58 16 31 24 42 70 93 16 17 26 32 23 32 -4 0 21 21 55 48 76 58
159 102 232 120 42 11 135 7 192 -9z"/>
</g>
</svg>
